<?xml version="1.0" encoding="UTF-8"?>
<svg version="1.1" xmlns="http://www.w3.org/2000/svg" width="850" height="300">
<path d="M0 0 C0.69167426 -0.00350607 1.38334852 -0.00701215 2.09598261 -0.01062447 C4.42492859 -0.01996424 6.75362592 -0.01500859 9.08258247 -0.01015663 C10.76467917 -0.01389159 12.44677413 -0.0184925 14.12886631 -0.02388728 C18.76010717 -0.03615168 23.39127597 -0.03585277 28.02252936 -0.03349853 C33.01377022 -0.03309123 38.0049877 -0.04412113 42.99621773 -0.05361366 C52.77814946 -0.07024326 62.5600571 -0.07572408 72.34200178 -0.07683842 C80.29094401 -0.07778792 88.23987827 -0.08189332 96.18881798 -0.08823967 C118.71250704 -0.10585708 141.23617702 -0.11507771 163.75987302 -0.11357872 C165.58215738 -0.11345885 165.58215738 -0.11345885 167.44125557 -0.11333656 C168.65759053 -0.1132548 169.87392549 -0.11317304 171.12711908 -0.1130888 C190.84574989 -0.11227566 210.56430435 -0.13141915 230.28291307 -0.1596133 C250.51707618 -0.18831694 270.75120202 -0.202155 290.98538601 -0.20042574 C302.35049863 -0.19976099 313.71553122 -0.20529059 325.08062553 -0.22678185 C334.75611948 -0.24496047 344.4314971 -0.24936831 354.10700069 -0.235763 C359.04545307 -0.22921668 363.98368206 -0.22917601 368.92211342 -0.2464695 C373.44113783 -0.26213184 377.95976048 -0.25940698 382.47877468 -0.24190123 C384.11536115 -0.2388162 385.75197709 -0.24251995 387.38852881 -0.25362138 C389.6107348 -0.26769963 391.83152316 -0.25719189 394.05368042 -0.24050903 C395.28864097 -0.24094377 396.52360151 -0.24137851 397.7959851 -0.24182642 C402.61541536 0.47475766 405.69320017 2.71576416 409.00303078 6.21160889 C410.37515407 8.65313141 410.53442439 10.19616934 410.54709053 12.98782921 C410.55844032 13.93545631 410.56979012 14.88308342 410.58148384 15.8594265 C410.57855324 16.89225258 410.57562263 17.92507866 410.57260323 18.9892025 C410.58107277 20.08230232 410.58954231 21.17540215 410.59826851 22.30162621 C410.62169226 25.91977088 410.62265929 29.53749159 410.62143135 33.15570641 C410.62853004 35.66910536 410.6362286 38.18250269 410.64450264 40.69589806 C410.65796009 45.96671452 410.65969158 51.23742161 410.65365791 56.50824547 C410.6470201 62.59326759 410.66987122 68.67768308 410.70697165 74.76258218 C410.74140866 80.62416896 410.7480022 86.48551758 410.74388313 92.34719276 C410.74557715 94.83748366 410.75524654 97.32778234 410.77302742 99.81801033 C410.7951602 103.30134488 410.78554199 106.78321673 410.76791573 110.26654625 C410.78117897 111.29532387 410.79444221 112.32410149 410.80810738 113.38405418 C410.75543548 117.86360286 410.70153424 121.20971522 407.8642292 124.81918907 C403.3014333 128.92181285 400.45266953 129.50752308 394.3053627 129.51453781 C393.61368844 129.51804389 392.92201418 129.52154996 392.20938009 129.52516228 C389.88043411 129.53450205 387.55173678 129.5295464 385.22278023 129.52469444 C383.54068353 129.52842941 381.85858858 129.53303031 380.17649639 129.53842509 C375.54525554 129.55068949 370.91408673 129.55039059 366.28283334 129.54803634 C361.29159249 129.54762904 356.300375 129.55865894 351.30914497 129.56815147 C341.52721324 129.58478107 331.7453056 129.5902619 321.96336092 129.59137623 C314.01441869 129.59232573 306.06548443 129.59643113 298.11654472 129.60277748 C275.59285566 129.62039489 253.06918568 129.62961552 230.54548968 129.62811653 C228.72320532 129.62799666 228.72320532 129.62799666 226.86410713 129.62787437 C225.64777217 129.62779261 224.43143722 129.62771085 223.17824362 129.62762661 C203.45961281 129.62681347 183.74105835 129.64595696 164.02244963 129.67415111 C143.78828652 129.70285475 123.55416068 129.71669281 103.31997669 129.71496356 C91.95486407 129.7142988 80.58983149 129.7198284 69.22473717 129.74131966 C59.54924322 129.75949828 49.8738656 129.76390612 40.19836201 129.75030081 C35.25990964 129.74375449 30.32168064 129.74371383 25.38324928 129.76100731 C20.86422487 129.77666965 16.34560222 129.77394479 11.82658802 129.75643905 C10.19000156 129.75335401 8.55338561 129.75705776 6.91683389 129.7681592 C4.6946279 129.78223744 2.47383954 129.7717297 0.25168228 129.75504684 C-0.98327826 129.75548158 -2.21823881 129.75591632 -3.4906224 129.75636423 C-8.31005265 129.03978015 -11.38783747 126.79877365 -14.69766808 123.30292892 C-16.06979137 120.8614064 -16.22906168 119.31836848 -16.24172783 116.5267086 C-16.25307762 115.5790815 -16.26442741 114.63145439 -16.27612114 113.65511131 C-16.27319054 112.62228523 -16.27025993 111.58945915 -16.26724052 110.52533531 C-16.27571007 109.43223549 -16.28417961 108.33913567 -16.29290581 107.21291161 C-16.31632955 103.59476693 -16.31729659 99.97704622 -16.31606865 96.35883141 C-16.32316734 93.84543245 -16.3308659 91.33203512 -16.33913994 88.81863976 C-16.35259739 83.54782329 -16.35432888 78.2771162 -16.34829521 73.00629234 C-16.3416574 66.92127022 -16.36450852 60.83685473 -16.40160894 54.75195563 C-16.43604596 48.89036885 -16.4426395 43.02902024 -16.43852043 37.16734505 C-16.44021445 34.67705415 -16.44988384 32.18675547 -16.46766472 29.69652748 C-16.4897975 26.21319294 -16.48017928 22.73132108 -16.46255302 19.24799156 C-16.47581627 18.21921394 -16.48907951 17.19043633 -16.50274467 16.13048363 C-16.45007277 11.65093495 -16.39617154 8.30482259 -13.5588665 4.69534874 C-8.99607059 0.59272496 -6.14730683 0.00701473 0 0 Z " fill="#DD0606" transform="translate(27.847318649291992,12.742731094360352)"/>
<path d="M0 0 C1.40690517 -0.004071 2.81380714 -0.00941584 4.22070312 -0.01593018 C8.02237872 -0.02954687 11.82380867 -0.02432867 15.62548828 -0.01479292 C19.6149153 -0.0071669 23.6043221 -0.01425007 27.59375 -0.01895142 C34.29170485 -0.02440043 40.98956027 -0.01723984 47.6875 -0.00292969 C55.41743946 0.01339522 63.14714149 0.0081061 70.8770752 -0.0084089 C77.52870711 -0.02204818 84.18026779 -0.02393153 90.83190918 -0.0160929 C94.79813526 -0.01142977 98.76424995 -0.0107539 102.73046875 -0.02070236 C106.46031744 -0.02940541 110.18986173 -0.02328972 113.91967773 -0.00601959 C115.93147368 -0.00019829 117.94329554 -0.00904172 119.95507812 -0.0184021 C128.02348569 0.03795652 134.2517602 0.47288597 140.8125 5.57568359 C147.2816382 13.893147 146.44168386 23.29771889 146.3984375 33.29443359 C146.40046158 34.94535449 146.4033758 36.59627452 146.40713501 38.24719238 C146.41154265 41.69678309 146.40517788 45.14613976 146.39111328 48.59570312 C146.37402222 53.00041588 146.38387181 57.4045801 146.40183067 61.80927277 C146.41271087 65.21523108 146.40920283 68.62106098 146.4014473 72.02702332 C146.39945698 73.65040656 146.40186317 75.27380175 146.40888596 76.89717102 C146.47177875 95.51838607 146.47177875 95.51838607 141.65438843 100.88806152 C136.77334919 105.27676008 132.27251956 106.63556068 125.83390808 106.65560913 C123.97299782 106.66840408 123.97299782 106.66840408 122.07449341 106.68145752 C120.70745837 106.68075856 119.34042343 106.67983553 117.97338867 106.67871094 C116.52751825 106.68469817 115.08165101 106.69150417 113.63578796 106.69906616 C109.71416722 106.71671465 105.79263378 106.72142108 101.87097716 106.72269773 C99.41870389 106.72412067 96.96645273 106.72839298 94.51418495 106.73369217 C85.95272033 106.75218939 77.39131793 106.76036326 68.82983398 106.75878906 C60.85964526 106.75758809 52.88972752 106.77868249 44.91960734 106.81027639 C38.06846987 106.83646306 31.21742076 106.84715534 24.36623365 106.84587824 C20.27806239 106.84536926 16.19013197 106.85101662 12.10201073 106.87223434 C8.25479235 106.89165696 4.40804352 106.89171412 0.56080818 106.87720108 C-0.84683038 106.87511676 -2.25449865 106.87979141 -3.66208649 106.891922 C-11.53598922 106.95535479 -17.31517751 106.74811673 -24 102.38818359 C-29.38211882 97.00606477 -30.24874377 91.24172486 -30.2746582 83.84155273 C-30.27976913 83.11064926 -30.28488007 82.37974579 -30.29014587 81.62669373 C-30.3039754 79.22549103 -30.30309023 76.82457748 -30.30078125 74.42333984 C-30.30467168 72.74474482 -30.30900706 71.06615077 -30.31376648 69.38755798 C-30.32121429 65.87479456 -30.32094776 62.36213166 -30.31567383 58.84936523 C-30.30987945 54.35932952 -30.32681628 49.86970635 -30.3500185 45.37973881 C-30.36478635 41.9146435 -30.36562343 38.44964688 -30.36250877 34.98452568 C-30.3630204 33.32960633 -30.36822818 31.67468122 -30.37832069 30.01979256 C-30.39072815 27.7009958 -30.38386846 25.38299406 -30.37231445 23.06420898 C-30.37294388 21.74771866 -30.3735733 20.43122833 -30.3742218 19.07484436 C-29.83015116 13.71491108 -28.20294138 9.90045276 -24.8125 5.63818359 C-17.24715475 -0.41409261 -9.28614563 -0.04320637 0 0 Z " fill="#0388B7" transform="translate(692,137.61181640625)"/>
<path d="M0 0 C275.55 0 551.1 0 835 0 C835 5.94 835 11.88 835 18 C559.45 18 283.9 18 0 18 C0 12.06 0 6.12 0 0 Z " fill="#000000" transform="translate(8,278)"/>
<path d="M0 0 C2.53301144 7.09843712 3.42538231 13.3550342 3.34057617 20.86572266 C3.34101425 21.9010614 3.34145233 22.93640015 3.34190369 24.00311279 C3.33983081 27.3902948 3.3165707 30.77696806 3.29296875 34.1640625 C3.28736746 36.52631358 3.28309988 38.88856816 3.28010559 41.25082397 C3.26869883 47.44205493 3.23926757 53.63307185 3.20599365 59.82421875 C3.17520272 66.15231431 3.16158101 72.48044474 3.14648438 78.80859375 C3.11439384 91.20582276 3.0632481 103.60289352 3 116 C7.68012634 116.75155081 12.15764958 117.1227835 16.89573479 117.11466789 C17.88643908 117.11505047 17.88643908 117.11505047 18.89715761 117.11544079 C21.10187099 117.11508114 23.30650015 117.10755818 25.51119995 117.10006714 C27.11124924 117.09835418 28.71129906 117.09709237 30.31134903 117.09624207 C34.70198368 117.09265934 39.09258586 117.08285999 43.48320794 117.07208848 C48.22085625 117.06159478 52.95851045 117.05697201 57.69616699 117.05175781 C65.90446465 117.04205061 74.11275147 117.02901039 82.32104111 117.01403427 C95.29557518 116.9906547 108.27011003 116.97765865 121.24465942 116.96633911 C125.68463712 116.96233778 130.12461475 116.95826909 134.56459236 116.95417976 C135.67413974 116.95316054 136.78368711 116.95214131 137.92685714 116.95109119 C150.55296533 116.93935144 163.17907086 116.92547178 175.80517578 116.91064453 C176.95921501 116.9092921 178.11325424 116.90793967 179.30226435 116.90654625 C198.00987753 116.88435858 216.71747277 116.85448796 235.4250717 116.82267712 C254.63441265 116.79029258 273.84374421 116.76942124 293.05310929 116.75840485 C304.90053246 116.75118014 316.74786675 116.73447498 328.5952573 116.70560409 C336.71316234 116.68661139 344.83103191 116.67851869 352.94895898 116.67900907 C357.63259609 116.67894603 362.31609366 116.67396686 366.99969864 116.65584183 C371.28923749 116.63933902 375.5785541 116.63674208 379.86811449 116.64509059 C381.41786022 116.64566354 382.96761809 116.64117033 384.51733075 116.63102923 C401.12599754 116.52819934 401.12599754 116.52819934 407 120 C409.0625 123.1875 409.0625 123.1875 410 126 C406.34735692 128.43509538 404.62980697 128.25230197 400.27572918 128.25726891 C399.58520876 128.26077498 398.89468834 128.26428105 398.18324307 128.26789337 C395.85220095 128.27725223 393.52140621 128.27227262 391.19035339 128.26742554 C389.50911975 128.27115955 387.82788785 128.27576007 386.14665872 128.28115618 C381.51315856 128.29343251 376.87973034 128.29312028 372.24621761 128.29076743 C367.25427749 128.29036043 362.26236081 128.30138726 357.27043152 128.31088257 C347.48502057 128.32751909 337.69963371 128.33299332 327.91420981 128.33410732 C319.96238324 128.33505658 312.01056466 128.33916072 304.05874062 128.34550858 C281.52914341 128.36312849 258.99956528 128.37234631 236.46996113 128.37084763 C235.25453948 128.37076772 234.03911784 128.3706878 232.78686523 128.37060547 C231.56996477 128.37052371 230.35306431 128.37044195 229.09928808 128.37035771 C209.37412718 128.36954467 189.64904261 128.38868482 169.92390379 128.4168822 C149.68525229 128.44558606 129.44663805 128.45942386 109.20796567 128.45769465 C97.8394847 128.45702987 86.47108375 128.46256071 75.10262108 128.48405075 C65.42344313 128.50222975 55.74438145 128.50663697 46.06519385 128.4930319 C41.1247232 128.48648554 36.18447583 128.48644501 31.24402618 128.5037384 C26.72311151 128.51940078 22.20259842 128.51667584 17.68169395 128.49917014 C16.04440465 128.4960851 14.40708589 128.49978891 12.76983132 128.51089029 C10.54666372 128.52496849 8.32491314 128.51446082 6.10179424 128.49777794 C4.24854032 128.49843004 4.24854032 128.49843004 2.35784692 128.49909532 C-2.4623661 127.78264045 -5.54000442 125.54204805 -8.85034943 122.04566002 C-10.22247272 119.60413749 -10.38174303 118.06109957 -10.39440918 115.2694397 C-10.40575897 114.32181259 -10.41710876 113.37418549 -10.42880249 112.39784241 C-10.42587189 111.36501633 -10.42294128 110.33219025 -10.41992188 109.26806641 C-10.42839142 108.17496658 -10.43686096 107.08186676 -10.44558716 105.9556427 C-10.4690109 102.33749802 -10.46997794 98.71977731 -10.46875 95.1015625 C-10.47584869 92.58816354 -10.48354725 90.07476621 -10.49182129 87.56137085 C-10.50527874 82.29055439 -10.50701023 77.0198473 -10.50097656 71.74902344 C-10.49433875 65.66400131 -10.51718987 59.57958582 -10.55429029 53.49468672 C-10.58872731 47.63309994 -10.59532085 41.77175133 -10.59120178 35.91007614 C-10.5928958 33.41978525 -10.60256519 30.92948657 -10.62034607 28.43925858 C-10.64247885 24.95592403 -10.63286063 21.47405217 -10.61523438 17.99072266 C-10.62849762 16.96194504 -10.64176086 15.93316742 -10.65542603 14.87321472 C-10.60161397 10.29670036 -10.5299946 7.02659662 -7.58654785 3.37557983 C-3.91119304 0 -3.91119304 0 0 0 Z " fill="#A00000" transform="translate(22,14)"/>
<path d="M0 0 C1.40690517 -0.004071 2.81380714 -0.00941584 4.22070312 -0.01593018 C8.02237872 -0.02954687 11.82380867 -0.02432867 15.62548828 -0.01479292 C19.6149153 -0.0071669 23.6043221 -0.01425007 27.59375 -0.01895142 C34.29170485 -0.02440043 40.98956027 -0.01723984 47.6875 -0.00292969 C55.41743946 0.01339522 63.14714149 0.0081061 70.8770752 -0.0084089 C77.52870711 -0.02204818 84.18026779 -0.02393153 90.83190918 -0.0160929 C94.79813526 -0.01142977 98.76424995 -0.0107539 102.73046875 -0.02070236 C106.46031744 -0.02940541 110.18986173 -0.02328972 113.91967773 -0.00601959 C115.93147368 -0.00019829 117.94329554 -0.00904172 119.95507812 -0.0184021 C128.02348569 0.03795652 134.2517602 0.47288597 140.8125 5.57568359 C147.2816382 13.893147 146.44168386 23.29771889 146.3984375 33.29443359 C146.40046158 34.94535449 146.4033758 36.59627452 146.40713501 38.24719238 C146.41154265 41.69678309 146.40517788 45.14613976 146.39111328 48.59570312 C146.37402222 53.00041588 146.38387181 57.4045801 146.40183067 61.80927277 C146.41271087 65.21523108 146.40920283 68.62106098 146.4014473 72.02702332 C146.39945698 73.65040656 146.40186317 75.27380175 146.40888596 76.89717102 C146.47177875 95.51838607 146.47177875 95.51838607 141.65438843 100.88806152 C136.77334919 105.27676008 132.27251956 106.63556068 125.83390808 106.65560913 C123.97299782 106.66840408 123.97299782 106.66840408 122.07449341 106.68145752 C120.70745837 106.68075856 119.34042343 106.67983553 117.97338867 106.67871094 C116.52751825 106.68469817 115.08165101 106.69150417 113.63578796 106.69906616 C109.71416722 106.71671465 105.79263378 106.72142108 101.87097716 106.72269773 C99.41870389 106.72412067 96.96645273 106.72839298 94.51418495 106.73369217 C85.95272033 106.75218939 77.39131793 106.76036326 68.82983398 106.75878906 C60.85964526 106.75758809 52.88972752 106.77868249 44.91960734 106.81027639 C38.06846987 106.83646306 31.21742076 106.84715534 24.36623365 106.84587824 C20.27806239 106.84536926 16.19013197 106.85101662 12.10201073 106.87223434 C8.25479235 106.89165696 4.40804352 106.89171412 0.56080818 106.87720108 C-0.84683038 106.87511676 -2.25449865 106.87979141 -3.66208649 106.891922 C-11.53598922 106.95535479 -17.31517751 106.74811673 -24 102.38818359 C-29.38211882 97.00606477 -30.24874377 91.24172486 -30.2746582 83.84155273 C-30.27976913 83.11064926 -30.28488007 82.37974579 -30.29014587 81.62669373 C-30.3039754 79.22549103 -30.30309023 76.82457748 -30.30078125 74.42333984 C-30.30467168 72.74474482 -30.30900706 71.06615077 -30.31376648 69.38755798 C-30.32121429 65.87479456 -30.32094776 62.36213166 -30.31567383 58.84936523 C-30.30987945 54.35932952 -30.32681628 49.86970635 -30.3500185 45.37973881 C-30.36478635 41.9146435 -30.36562343 38.44964688 -30.36250877 34.98452568 C-30.3630204 33.32960633 -30.36822818 31.67468122 -30.37832069 30.01979256 C-30.39072815 27.7009958 -30.38386846 25.38299406 -30.37231445 23.06420898 C-30.37294388 21.74771866 -30.3735733 20.43122833 -30.3742218 19.07484436 C-29.83015116 13.71491108 -28.20294138 9.90045276 -24.8125 5.63818359 C-17.24715475 -0.41409261 -9.28614563 -0.04320637 0 0 Z M-12 11.38818359 C-12.804375 11.86255859 -13.60875 12.33693359 -14.4375 12.82568359 C-17.74201516 16.13019875 -17.14204757 21.36757124 -17.19287109 25.77978516 C-17.20893402 27.05170715 -17.22499695 28.32362915 -17.24154663 29.63409424 C-17.25303592 31.01565881 -17.26364415 32.39723096 -17.2734375 33.77880859 C-17.27876118 34.48010643 -17.28408485 35.18140427 -17.28956985 35.90395355 C-17.31622797 39.61662194 -17.33562547 43.32925756 -17.35009766 47.04199219 C-17.3634237 50.09926355 -17.39126068 53.15586539 -17.43212891 56.21289062 C-17.48168429 59.92107354 -17.50624568 63.62865075 -17.51332474 67.33715057 C-17.51999761 68.74206928 -17.53511536 70.14697657 -17.55921555 71.55170441 C-17.69350741 79.85302416 -17.4913012 86.76844584 -12 93.38818359 C-9.61211213 95.01150694 -9.61211213 95.01150694 -7 95.38818359 C-6.22726179 95.56073827 -5.45452358 95.73329294 -4.65836906 95.91107655 C-2.03040646 96.38272644 0.36690782 96.51667789 3.03390503 96.52189636 C4.02353241 96.52616135 5.01315979 96.53042633 6.03277588 96.53482056 C7.10718933 96.53436737 8.18160278 96.53391418 9.28857422 96.53344727 C10.42898163 96.53680588 11.56938904 96.54016449 12.74435425 96.54362488 C16.51447641 96.55312428 20.28455411 96.55507746 24.0546875 96.55615234 C26.67636127 96.5593655 29.29803486 96.56272962 31.91970825 96.5662384 C37.41571339 96.57262832 42.91170649 96.5741214 48.40771484 96.57348633 C54.74985113 96.57288575 61.09190231 96.58343604 67.43401706 96.59922999 C73.54704441 96.61390807 79.66003106 96.61747368 85.7730751 96.6168766 C88.36858594 96.61805639 90.96409742 96.62247806 93.55959702 96.63020897 C97.190682 96.64001215 100.82154817 96.63712938 104.45263672 96.63110352 C106.0581842 96.63953278 106.0581842 96.63953278 107.69616699 96.64813232 C117.48807539 96.6286941 117.48807539 96.6286941 125.8125 91.95068359 C130.43335985 86.53767635 131.1191472 82.47613162 131.14526367 75.515625 C131.15164352 74.35737213 131.15802338 73.19911926 131.16459656 72.00576782 C131.16570938 70.76298065 131.1668222 69.52019348 131.16796875 68.23974609 C131.17129715 66.9538559 131.17462555 65.6679657 131.17805481 64.34310913 C131.18402978 61.62472698 131.18589639 58.90637654 131.18530273 56.18798828 C131.1852012 52.7192332 131.1988511 49.25068323 131.21607494 45.7819767 C131.22992366 42.45539701 131.22928509 39.12885421 131.23046875 35.80224609 C131.24124702 33.94413803 131.24124702 33.94413803 131.25224304 32.04849243 C131.23321117 24.84459993 131.11043715 18.95969262 127.375 12.63818359 C121.09088252 6.68480914 113.26432984 6.95046271 105.11132812 6.98413086 C103.35857826 6.97383598 103.35857826 6.97383598 101.57041931 6.96333313 C97.7239045 6.94509385 93.87779861 6.94889836 90.03125 6.95458984 C88.02738838 6.9511811 86.02352656 6.94776402 84.01966715 6.94323677 C77.72612003 6.92922413 71.43270877 6.9307261 65.13916016 6.94213867 C58.66337179 6.95362276 52.18799743 6.93953231 45.71226358 6.9127422 C40.13492384 6.89053938 34.55771362 6.8839579 28.98033285 6.88981861 C25.65678055 6.8931778 22.33355121 6.88911785 19.01002502 6.87356758 C15.30259527 6.85866282 11.59607354 6.86933209 7.88867188 6.88647461 C6.79856308 6.87680664 5.70845428 6.86713867 4.58531189 6.85717773 C-2.08200921 6.92161431 -6.27602096 7.93212809 -12 11.38818359 Z " fill="#000101" transform="translate(692,137.61181640625)"/>
<path d="M0 0 C1.03125 0.5775 2.0625 1.155 3.125 1.75 C11.50432647 8.30773376 16.98951266 16.57203163 18.4453125 27.2734375 C18.81097815 37.5364534 16.44715856 45.5442982 9.75 53.375 C2.72354176 60.64374991 -4.63148682 65.1071346 -14.96386719 65.48168945 C-25.32308951 65.56945964 -32.71352371 63.36708911 -40.875 56.625 C-41.926875 55.325625 -41.926875 55.325625 -43 54 C-43.75023437 53.13955078 -43.75023437 53.13955078 -44.515625 52.26171875 C-50.75308774 44.70712188 -52.63393265 36.66162891 -52.34765625 26.953125 C-51.13652626 16.66532417 -44.96065941 7.68080552 -36.94921875 1.3203125 C-26.20618213 -5.95653395 -11.15700265 -6.92503613 0 0 Z " fill="#5AC4EE" transform="translate(767,157)"/>
<path d="M0 0 C1.18529297 0.01353516 1.18529297 0.01353516 2.39453125 0.02734375 C3.28205078 0.04474609 3.28205078 0.04474609 4.1875 0.0625 C4.28448002 15.74901814 4.00082592 31.42869168 3.72393799 47.11218262 C3.66247963 50.61252934 3.60280963 54.11290656 3.54296875 57.61328125 C3.42618452 64.42971773 3.30732049 71.24611622 3.1875 78.0625 C-0.7725 78.0625 -4.7325 78.0625 -8.8125 78.0625 C-9.1425 76.0825 -9.4725 74.1025 -9.8125 72.0625 C-10.33199219 72.47242187 -10.85148437 72.88234375 -11.38671875 73.3046875 C-18.50883676 78.80754393 -23.68113036 81.12397069 -32.8125 80.0625 C-40.02350052 78.20991775 -44.71801828 74.18300765 -48.8125 68.0625 C-53.45321576 60.03049195 -54.34732349 51.2535296 -52.1171875 42.2578125 C-49.59014812 35.27129186 -45.71266022 29.54988458 -39.3125 25.625 C-33.0730317 22.84789561 -24.9002249 22.67050066 -18.4609375 24.86328125 C-15.43685446 26.52974403 -13.25351586 28.62148414 -10.8125 31.0625 C-10.4825 21.1625 -10.1525 11.2625 -9.8125 1.0625 C-6.19060828 0.33812166 -3.57484736 -0.05335593 0 0 Z " fill="#FDF7F7" transform="translate(170.8125,33.9375)"/>
<path d="M0 0 C4.95 0 9.9 0 15 0 C17.6095685 5.77822871 20.06444157 11.57188382 22.3203125 17.49609375 C22.62093094 18.27950134 22.92154938 19.06290894 23.23127747 19.87005615 C24.19826889 22.39161946 25.16185253 24.9144662 26.125 27.4375 C27.12738066 30.05839118 28.13024197 32.679098 29.13322449 35.29975891 C29.80100962 37.04467187 30.46850135 38.78969715 31.13569641 40.53483582 C33.13762525 45.76631569 35.16124073 50.98865612 37.20703125 56.203125 C37.67415527 57.39881104 38.1412793 58.59449707 38.62255859 59.82641602 C39.47833854 62.01385056 40.33908565 64.19935048 41.20556641 66.38256836 C41.76703369 67.82321655 41.76703369 67.82321655 42.33984375 69.29296875 C42.66331787 70.1130542 42.98679199 70.93313965 43.32006836 71.77807617 C44 74 44 74 44 78 C39.05 78 34.1 78 29 78 C26.625 71.125 26.625 71.125 25.88916016 68.96533203 C24.88405482 66.10540252 24.16870166 64.16870166 22 62 C18.88961056 61.72095371 18.88961056 61.72095371 15.2421875 61.8046875 C14.24761032 61.80893234 14.24761032 61.80893234 13.23294067 61.81326294 C11.11344417 61.82446565 8.99436896 61.84956949 6.875 61.875 C5.43880818 61.88502972 4.00260975 61.89415559 2.56640625 61.90234375 C-0.95586628 61.924405 -4.47789203 61.95893506 -8 62 C-8.63228516 63.60681641 -8.63228516 63.60681641 -9.27734375 65.24609375 C-9.83059319 66.64328302 -10.38398602 68.04041551 -10.9375 69.4375 C-11.21529297 70.14455078 -11.49308594 70.85160156 -11.77929688 71.58007812 C-13.88671875 76.88671875 -13.88671875 76.88671875 -15 78 C-17.35313555 78.07271741 -19.70833668 78.08370868 -22.0625 78.0625 C-23.99802734 78.04896484 -23.99802734 78.04896484 -25.97265625 78.03515625 C-26.97167969 78.02355469 -27.97070312 78.01195313 -29 78 C-28.41520438 72.51191799 -27.03595692 67.80266703 -25.078125 62.65625 C-24.63313408 61.46376648 -24.63313408 61.46376648 -24.17915344 60.24719238 C-23.21081175 57.66168729 -22.23108463 55.08069405 -21.25 52.5 C-20.91829803 51.62037598 -20.58659607 50.74075195 -20.24484253 49.83447266 C-13.91135995 33.04322867 -7.10190363 16.47929072 0 0 Z " fill="#FEFAFA" transform="translate(71,34)"/>
<path d="M0 0 C2 0.25 2 0.25 4 1 C4.91037265 3.73111794 5.12821616 5.33189521 5.13803101 8.14128113 C5.14348434 8.9836734 5.14893768 9.82606567 5.15455627 10.69398499 C5.1555986 11.61505539 5.15664093 12.53612579 5.15771484 13.48510742 C5.16279556 14.45780579 5.16787628 15.43050415 5.17311096 16.43267822 C5.18381922 18.54759505 5.19243761 20.66252325 5.19923019 22.77745628 C5.21101622 26.12784622 5.23046965 29.47810709 5.25234985 32.82844543 C5.31396729 42.35539436 5.3679654 51.88233093 5.40136719 61.40942383 C5.42234414 67.23554347 5.45767498 73.06142918 5.50212479 78.88741493 C5.51626411 81.10527093 5.52500254 83.32316833 5.52817917 85.54106712 C5.53310265 88.65026589 5.55629936 91.75884719 5.58349609 94.86791992 C5.58048996 95.77886917 5.57748383 96.68981842 5.5743866 97.62837219 C5.65413876 103.78605004 6.10333979 110.09511051 10.6936304 114.69844192 C13.79734143 116.44996525 16.06719501 116.37674181 19.62588215 116.37917423 C20.6274883 116.3860003 20.6274883 116.3860003 21.64932892 116.39296427 C23.89697759 116.40461688 26.14402662 116.3948461 28.39167786 116.38526917 C30.01531625 116.38927445 31.63895183 116.39459975 33.262582 116.40113491 C37.73230769 116.41532483 42.20185219 116.4108423 46.67158711 116.40342176 C51.48902859 116.39869323 56.30642769 116.41123503 61.12385559 116.42178345 C69.47463413 116.43777944 77.82536414 116.44303236 86.176157 116.44125557 C98.25768789 116.4388748 110.33914104 116.45484542 122.42065164 116.47570812 C142.03116118 116.5092572 161.64166378 116.53090358 181.25219727 116.54370117 C183.01350333 116.54485541 183.01350333 116.54485541 184.81039133 116.54603296 C189.56807157 116.54913523 194.32575182 116.55221805 199.0834321 116.555273 C212.17451959 116.56380013 225.26560468 116.57470144 238.35668945 116.58666992 C240.11449077 116.58827195 240.11449077 116.58827195 241.90780322 116.58990634 C261.44023887 116.60799268 280.972658 116.63398245 300.50507754 116.66480106 C312.55726003 116.68336712 324.6094054 116.69427156 336.6616024 116.69532298 C344.91922729 116.69642568 353.17682674 116.70436726 361.43444089 116.71770663 C366.200805 116.72513239 370.96711345 116.7292138 375.73348236 116.72458839 C380.09641111 116.72039499 384.45923074 116.72532114 388.82214364 116.73749625 C390.40087077 116.74026498 391.97960821 116.73964932 393.55833182 116.73531515 C395.7045509 116.72989869 397.85039906 116.73677645 399.99659443 116.74666691 C401.18864658 116.74731901 402.38069872 116.74797112 403.60887367 116.74864298 C407.37025504 117.02744404 410.41983464 117.84939612 414 119 C414 119.99 414 120.98 414 122 C362.38014906 122.09150786 310.7603063 122.16201449 259.14039024 122.20426132 C253.04948529 122.20926429 246.95858049 122.21444156 240.86767578 122.21972656 C239.04875218 122.22130043 239.04875218 122.22130043 237.19308265 122.22290608 C217.54533733 122.24032262 197.89763872 122.27186719 178.24992113 122.30861118 C158.09725392 122.34598584 137.94461121 122.36822849 117.79191077 122.37635398 C105.35146625 122.38184896 92.91115371 122.39921922 80.47074981 122.43166587 C71.94584281 122.45277085 63.42100428 122.45920916 54.89607303 122.45400551 C49.97384144 122.45143748 45.05184088 122.45543981 40.12965012 122.4768219 C35.62528366 122.49624651 31.12130423 122.49729668 26.61692019 122.48359558 C24.98559169 122.48190152 23.35423933 122.48701039 21.72295801 122.49953273 C19.50781015 122.51555121 17.29406516 122.50695677 15.07893944 122.49219131 C13.23235947 122.49446964 13.23235947 122.49446964 11.34847486 122.49679399 C6.53349964 121.78242376 3.45755571 119.53641774 0.14796829 116.04776287 C-1.22968087 113.59029186 -1.37246492 112.04412567 -1.36749268 109.23579407 C-1.37306183 108.28094116 -1.37863098 107.32608826 -1.3843689 106.34230042 C-1.37515411 105.30161911 -1.36593933 104.26093781 -1.35644531 103.1887207 C-1.35848969 102.08758942 -1.36053406 100.98645813 -1.36264038 99.85195923 C-1.36565037 96.20973141 -1.347167 92.5679553 -1.328125 88.92578125 C-1.32506821 86.40040702 -1.32319148 83.87503112 -1.32244873 81.34965515 C-1.31784458 76.0578216 -1.303802 70.76614306 -1.28125 65.47436523 C-1.25233092 58.67455834 -1.24202225 51.8748558 -1.2375679 45.07499409 C-1.23402058 39.86188215 -1.22361153 34.64878902 -1.21169281 29.43568993 C-1.20597694 26.92733139 -1.20122263 24.41897047 -1.19742584 21.91060829 C-1.19058957 18.41472819 -1.17697091 14.91894512 -1.16113281 11.4230957 C-1.16001495 10.37634171 -1.15889709 9.32958771 -1.15774536 8.25111389 C-1.15203522 7.30472046 -1.14632507 6.35832703 -1.14044189 5.383255 C-1.13746723 4.55607121 -1.13449257 3.72888742 -1.13142776 2.87663746 C-1 1 -1 1 0 0 Z " fill="#6F0000" transform="translate(13,20)"/>
<path d="M0 0 C4.00085597 2.09327486 5.28843302 4.15176393 6.7265625 8.28125 C7.48582031 7.71535156 8.24507812 7.14945312 9.02734375 6.56640625 C10.02121094 5.83292969 11.01507813 5.09945312 12.0390625 4.34375 C13.02519531 3.61285156 14.01132813 2.88195313 15.02734375 2.12890625 C20.71758937 -1.76615334 27.05969154 -1.309174 33.7265625 -0.71875 C38.29549944 1.40816892 40.57273685 3.74688021 42.7265625 8.28125 C43.56690971 11.08570843 43.84910661 13.57695782 43.84008789 16.49902344 C43.83997459 17.7298465 43.83997459 17.7298465 43.83985901 18.98553467 C43.83469772 19.86171448 43.82953644 20.73789429 43.82421875 21.640625 C43.8228038 22.54500305 43.82138885 23.4493811 43.81993103 24.38116455 C43.81434161 27.26456027 43.80179103 30.14787782 43.7890625 33.03125 C43.78404613 34.98828013 43.77948346 36.94531147 43.77539062 38.90234375 C43.76437563 43.69534253 43.74711824 48.48828302 43.7265625 53.28125 C39.4365625 53.28125 35.1465625 53.28125 30.7265625 53.28125 C30.6968335 51.63141113 30.6968335 51.63141113 30.66650391 49.94824219 C30.59036349 45.86288778 30.50165914 41.77788562 30.40917969 37.69287109 C30.37092479 35.9256893 30.3360658 34.15843056 30.3046875 32.39111328 C30.25896098 29.84900437 30.20097961 27.30742352 30.140625 24.765625 C30.12907379 23.97694031 30.11752258 23.18825562 30.10562134 22.37567139 C29.99360003 17.00991275 29.99360003 17.00991275 27.7265625 12.28125 C25.49690682 11.16642216 24.01935512 10.98462721 21.5390625 10.84375 C20.80300781 10.78316406 20.06695312 10.72257812 19.30859375 10.66015625 C15.92745218 11.4734717 13.76088866 12.45122939 11.17797852 14.80932617 C7.6899843 20.74977049 8.74199903 28.94486963 8.7890625 35.65625 C8.77594623 37.36330845 8.75970272 39.07034592 8.74023438 40.77734375 C8.69948434 44.94594029 8.70151098 49.1125506 8.7265625 53.28125 C4.4365625 53.28125 0.1465625 53.28125 -4.2734375 53.28125 C-4.3031665 51.63141113 -4.3031665 51.63141113 -4.33349609 49.94824219 C-4.40963651 45.86288778 -4.49834086 41.77788562 -4.59082031 37.69287109 C-4.62907521 35.9256893 -4.6639342 34.15843056 -4.6953125 32.39111328 C-4.74103902 29.84900437 -4.79902039 27.30742352 -4.859375 24.765625 C-4.87092621 23.97694031 -4.88247742 23.18825562 -4.89437866 22.37567139 C-5.00639997 17.00991275 -5.00639997 17.00991275 -7.2734375 12.28125 C-10.52234523 10.65679613 -13.76315816 10.7115188 -17.2734375 11.28125 C-20.53112336 12.83439799 -23.70601781 14.71383031 -26.2734375 17.28125 C-26.43347238 19.94551685 -26.53286639 22.58685428 -26.58984375 25.25390625 C-26.61062485 26.05154892 -26.63140594 26.84919159 -26.65281677 27.67100525 C-26.71839908 30.22849611 -26.77723717 32.7860928 -26.8359375 35.34375 C-26.87911449 37.07357882 -26.92272851 38.80339679 -26.96679688 40.53320312 C-27.07408922 44.7824426 -27.17533176 49.0317889 -27.2734375 53.28125 C-31.5634375 53.28125 -35.8534375 53.28125 -40.2734375 53.28125 C-40.29849365 52.12189941 -40.3235498 50.96254883 -40.34936523 49.76806641 C-40.44425074 45.42552523 -40.544266 41.08311417 -40.64575195 36.74072266 C-40.68879653 34.86900905 -40.73048988 32.99726381 -40.77075195 31.12548828 C-40.8292013 28.4194998 -40.89267151 25.71366612 -40.95703125 23.0078125 C-40.97374374 22.18447418 -40.99045624 21.36113586 -41.00767517 20.5128479 C-41.15178222 14.73219407 -41.62705417 9.02682686 -42.2734375 3.28125 C-37.4001765 1.6899811 -33.46553154 1.06932779 -28.2734375 1.28125 C-27.6134375 2.93125 -26.9534375 4.58125 -26.2734375 6.28125 C-25.65855469 5.85972656 -25.04367188 5.43820313 -24.41015625 5.00390625 C-23.60191406 4.45605469 -22.79367188 3.90820312 -21.9609375 3.34375 C-21.16042969 2.79847656 -20.35992187 2.25320312 -19.53515625 1.69140625 C-13.95115682 -1.79015471 -6.21538123 -1.96500025 0 0 Z " fill="#FDF8F8" transform="translate(224.2734375,58.71875)"/>
<path d="M0 0 C6.435 -0.0825 12.87 -0.165 19.5 -0.25 C22.52317383 -0.30462402 22.52317383 -0.30462402 25.60742188 -0.36035156 C27.22785379 -0.37204801 28.84829758 -0.38223757 30.46875 -0.390625 C31.29149414 -0.41108887 32.11423828 -0.43155273 32.96191406 -0.45263672 C39.91678634 -0.45678146 45.27457239 1.3482326 50.3125 6.25 C55.37684624 14.50300869 56.46527264 22.91216954 54.49609375 32.4375 C52.44576001 38.62364979 48.23346143 42.41356833 43 46 C34.33606238 49.25332597 24.03291539 48.13481963 15 48 C15 57.24 15 66.48 15 76 C10.05 76 5.1 76 0 76 C0 50.92 0 25.84 0 0 Z M15 13 C15 19.93 15 26.86 15 34 C18.774375 34.0928125 18.774375 34.0928125 22.625 34.1875 C23.40568848 34.21481201 24.18637695 34.24212402 24.99072266 34.27026367 C29.71841279 34.32607418 32.91835974 33.62916467 37 31 C39.67433178 26.98850232 39.81902411 23.71559339 39 19 C36.33186201 15.44248268 34.34047034 13.71119193 30 13 C27.40393595 12.93095574 24.84376607 12.90587553 22.25 12.9375 C19.8575 12.958125 17.465 12.97875 15 13 Z " fill="#000000" transform="translate(386,170)"/>
<path d="M0 0 C6.34423673 4.14505485 10.76134625 9.69685087 13 17 C12.62109375 19.30078125 12.62109375 19.30078125 12 21 C10.23050388 21.50471197 8.45934777 22.00360685 6.6875 22.5 C5.70136719 22.7784375 4.71523438 23.056875 3.69921875 23.34375 C1 24 1 24 -2 24 C-2.27972656 23.38511719 -2.55945312 22.77023438 -2.84765625 22.13671875 C-4.92335234 17.95195525 -6.31105517 15.44196461 -10.3125 12.875 C-16.0425954 11.51531635 -19.89080055 12.06708486 -25.25 14.4375 C-30.4557984 19.2883576 -31.94764554 24.55442698 -32.34765625 31.5625 C-32.39245807 33.22883354 -32.42227156 34.89563385 -32.4375 36.5625 C-32.45272705 37.74888062 -32.45272705 37.74888062 -32.46826172 38.95922852 C-32.36112495 46.24377419 -31.10921478 53.16240465 -25.9375 58.5625 C-22.22531959 61.38595925 -18.94607476 61.77412146 -14.359375 61.43359375 C-10.54100267 60.73187301 -8.76881164 59.76881164 -6 57 C-4.06408757 53.43114287 -2.4732792 49.78098201 -1 46 C0.77111844 46.47811177 2.54188483 46.9575278 4.3125 47.4375 C5.29863281 47.70433594 6.28476562 47.97117188 7.30078125 48.24609375 C9.21517526 48.78079425 11.11433615 49.37144538 13 50 C12.48960735 57.82602065 9.51514084 65.10453465 3.625 70.4375 C-3.68407997 76.06231371 -11.92984199 77.76425815 -21 77 C-29.63363538 75.52265894 -36.28561727 71.61459339 -41.7890625 64.77734375 C-49.87345916 52.53127492 -50.43109735 37.8710354 -47.875 23.8125 C-45.65998208 14.50735463 -41.3332176 6.13801471 -33 1 C-22.90679688 -4.18430979 -10.28050873 -5.46212988 0 0 Z " fill="#000000" transform="translate(57,171)"/>
<path d="M0 0 C6.77543271 6.00840259 10.50778913 12.91595086 11.23828125 21.9453125 C11.47494892 32.08465385 9.81426986 40.99734043 2.64453125 48.56640625 C-3.6811934 54.08075529 -9.95484714 55.3196758 -18.12109375 55.2109375 C-24.99368097 54.70738294 -30.4380526 52.44423772 -35.49609375 47.75 C-42.76218824 39.29490823 -42.83661531 28.93787045 -42.26513672 18.35839844 C-41.43476182 10.97219079 -37.71605882 4.98082432 -32 0.375 C-22.27234717 -5.84192098 -9.93673915 -6.1545893 0 0 Z M-26 15 C-28.52447787 21.0367949 -28.8527033 26.88762807 -26.875 33.125 C-25.0848551 37.44488019 -22.96075571 39.51481995 -19 42 C-15.7207221 42.76749057 -14.03716429 42.61751501 -11.13671875 40.890625 C-6.73604915 37.50128941 -4.88574166 34.60969715 -4 29 C-3.44419962 22.88619578 -4.36358164 17.21969676 -8.32421875 12.3828125 C-10.70607952 10.16974501 -12.78243099 9.05092041 -15.9375 8.3125 C-20.39418779 9.31298093 -23.09373472 11.51861626 -26 15 Z " fill="#000000" transform="translate(311,193)"/>
<path d="M0 0 C4.33101502 3.07730015 5.07103662 6.9953738 6 12 C6.27915601 14.81690383 6.34617439 17.61587687 6.37890625 20.4453125 C6.39590073 21.2188205 6.4128952 21.99232849 6.43040466 22.78927612 C6.4830115 25.23443678 6.523588 27.67958631 6.5625 30.125 C6.60666476 32.5774716 6.65352442 35.02982434 6.70530701 37.48214722 C6.73686052 39.000223 6.76386935 40.51840256 6.78553772 42.03665161 C6.86619439 46.1889496 7.30955271 49.85731627 8 54 C3.38 54 -1.24 54 -6 54 C-6.495 52.02 -6.495 52.02 -7 50 C-7.81404297 50.52400391 -7.81404297 50.52400391 -8.64453125 51.05859375 C-9.35996094 51.51363281 -10.07539063 51.96867187 -10.8125 52.4375 C-11.87404297 53.11619141 -11.87404297 53.11619141 -12.95703125 53.80859375 C-17.75947846 56.60925608 -22.59972061 56.45564857 -28 56 C-33.28097404 54.20646165 -35.79895251 51.39000798 -39 47 C-40.81205684 41.56382947 -40.7099836 36.01784814 -38.8125 30.625 C-35.39039305 25.6688451 -31.53224364 23.54683104 -25.8125 21.9375 C-24.11480469 21.44830078 -24.11480469 21.44830078 -22.3828125 20.94921875 C-21.26648438 20.63597656 -20.15015625 20.32273438 -19 20 C-17.06138344 19.42038818 -15.1237429 18.83749251 -13.1875 18.25 C-11.79181199 17.83284683 -10.39603943 17.41597563 -9 17 C-9.66 15.02 -10.32 13.04 -11 11 C-16.22813602 10.00806813 -16.22813602 10.00806813 -21.375 10.6875 C-23.30518974 12.2464994 -23.95833123 13.77626363 -25 16 C-26.6045556 15.85851011 -28.20863767 15.71164314 -29.8125 15.5625 C-30.70582031 15.48128906 -31.59914063 15.40007812 -32.51953125 15.31640625 C-35 15 -35 15 -38 14 C-37.521671 8.97754554 -36.16310458 5.9325084 -33 2 C-23.92548272 -4.9949404 -10.07765239 -5.32404277 0 0 Z M-15.375 29.8125 C-16.53773438 30.14894531 -17.70046875 30.48539063 -18.8984375 30.83203125 C-21.79040829 31.92107315 -23.21700457 32.53123709 -25 35 C-25.66680368 37.95720628 -25.66680368 37.95720628 -25 41 C-22.9901643 43.59121904 -22.9901643 43.59121904 -20 45 C-16.16535669 45.0798884 -14.37147514 44.2476501 -11.1875 42.125 C-8.05024184 37.64320263 -8.10327817 33.36107591 -8 28 C-10.44065776 28 -13.07245367 29.13393502 -15.375 29.8125 Z " fill="#000000" transform="translate(488,192)"/>
<path d="M0 0 C6.45281764 4.19433147 11.30830433 9.71488369 13.03125 17.3203125 C14.21374922 27.92399263 14.1376563 38.5073611 7.5234375 47.33203125 C2.74286349 52.63513312 -2.76135869 55.7688031 -9.859375 56.69921875 C-17.79160133 57.0144739 -24.64722209 55.6144583 -31.0390625 50.7421875 C-37.15457737 45.06166741 -39.53793764 38.64543582 -40.20703125 30.375 C-40.43392847 20.65424551 -38.92671784 12.67706444 -32.84375 4.8828125 C-24.35055325 -3.89890048 -10.76808706 -5.57911757 0 0 Z M-21.96875 14.3203125 C-26.20896755 19.83259531 -25.57652493 26.69387753 -24.96875 33.3203125 C-23.67699611 37.41086649 -22.44059 38.89236459 -19.28125 41.7578125 C-15.65593672 43.46786593 -13.73867005 43.78230929 -9.8671875 43.0703125 C-6.38962408 41.69646028 -5.00479158 39.40522399 -2.96875 36.3203125 C-0.9063131 30.13300181 -1.07308337 22.79405844 -3.28125 16.6953125 C-3.838125 15.9115625 -4.395 15.1278125 -4.96875 14.3203125 C-5.360625 13.7221875 -5.7525 13.1240625 -6.15625 12.5078125 C-11.94799175 8.71322308 -17.12264612 9.92500898 -21.96875 14.3203125 Z " fill="#000000" transform="translate(117.96875,191.6796875)"/>
<path d="M0 0 C5.94206143 3.39158757 9.77826768 9.27182003 11.9609375 15.6015625 C12.7109375 19.9765625 12.7109375 19.9765625 12.7109375 31.9765625 C1.8209375 31.9765625 -9.0690625 31.9765625 -20.2890625 31.9765625 C-18.28777511 40.40329425 -18.28777511 40.40329425 -14.9765625 43.1015625 C-11.50057566 44.23327915 -9.7388054 44.22434185 -6.2890625 42.9765625 C-3.88385013 40.03713256 -3.88385013 40.03713256 -2.2890625 36.9765625 C2.3309375 37.6365625 6.9509375 38.2965625 11.7109375 38.9765625 C10.56930622 45.8263502 9.20274178 49.43125462 3.578125 53.53125 C-3.7766839 57.71710587 -10.92003197 58.31321961 -19.09765625 56.27734375 C-26.41961683 53.69888215 -30.16846243 49.64027959 -33.6015625 42.7265625 C-37.26061139 32.85459795 -36.8089425 19.85465891 -32.6171875 10.24609375 C-25.69556444 -1.58173859 -12.54801636 -5.48015408 0 0 Z M-17.2890625 12.9765625 C-19.82712947 16.38982498 -20.2890625 17.61568594 -20.2890625 21.9765625 C-14.0190625 21.9765625 -7.7490625 21.9765625 -1.2890625 21.9765625 C-2.29759228 15.51878092 -2.29759228 15.51878092 -6.2890625 10.9765625 C-10.98142831 9.37916137 -13.45738133 9.86979398 -17.2890625 12.9765625 Z " fill="#000000" transform="translate(597.2890625,191.0234375)"/>
<path d="M0 0 C4.94437012 3.41396985 7.12365803 7.06452824 8.625 12.8125 C8.88613765 16.1462925 8.85824164 19.4624456 8.8203125 22.8046875 C8.8174826 23.75062775 8.81465271 24.69656799 8.81173706 25.6711731 C8.80058932 28.67674694 8.77549465 31.68201702 8.75 34.6875 C8.73996321 36.73176651 8.73083859 38.77603772 8.72265625 40.8203125 C8.70066767 45.81782444 8.66617509 50.8151108 8.625 55.8125 C4.005 55.8125 -0.615 55.8125 -5.375 55.8125 C-5.43558594 53.93046875 -5.49617187 52.0484375 -5.55859375 50.109375 C-5.64307387 47.59374478 -5.72771804 45.07812007 -5.8125 42.5625 C-5.85181641 41.32757813 -5.89113281 40.09265625 -5.93164062 38.8203125 C-6.13414401 32.90098275 -6.37998655 26.98736921 -6.78515625 21.078125 C-6.84968994 20.13227539 -6.91422363 19.18642578 -6.98071289 18.21191406 C-7.24764008 15.55672897 -7.24764008 15.55672897 -9.375 12.8125 C-12.91556848 11.71098981 -14.69331902 11.51813776 -18.125 13 C-20.60688349 14.99929503 -21.27546681 15.85612343 -22.375 18.8125 C-22.67901492 21.6632273 -22.88667477 24.43855012 -23.0078125 27.296875 C-23.04937469 28.11246887 -23.09093689 28.92806274 -23.13375854 29.76837158 C-23.2642134 32.36608153 -23.38226613 34.96418549 -23.5 37.5625 C-23.58642175 39.32686317 -23.67365198 41.09118693 -23.76171875 42.85546875 C-23.97552003 47.17407848 -24.17820267 51.49308336 -24.375 55.8125 C-28.995 55.8125 -33.615 55.8125 -38.375 55.8125 C-38.375 37.6625 -38.375 19.5125 -38.375 0.8125 C-34.085 0.8125 -29.795 0.8125 -25.375 0.8125 C-25.045 2.4625 -24.715 4.1125 -24.375 5.8125 C-23.488125 5.02875 -22.60125 4.245 -21.6875 3.4375 C-15.2158617 -1.86293694 -7.91695625 -2.78559572 0 0 Z " fill="#000000" transform="translate(544.375,190.1875)"/>
<path d="M0 0 C4.94437012 3.41396985 7.12365803 7.06452824 8.625 12.8125 C8.88613765 16.1462925 8.85824164 19.4624456 8.8203125 22.8046875 C8.8174826 23.75062775 8.81465271 24.69656799 8.81173706 25.6711731 C8.80058932 28.67674694 8.77549465 31.68201702 8.75 34.6875 C8.73996321 36.73176651 8.73083859 38.77603772 8.72265625 40.8203125 C8.70066767 45.81782444 8.66617509 50.8151108 8.625 55.8125 C4.005 55.8125 -0.615 55.8125 -5.375 55.8125 C-5.43558594 53.93046875 -5.49617188 52.0484375 -5.55859375 50.109375 C-5.64307387 47.59374478 -5.72771804 45.07812007 -5.8125 42.5625 C-5.85181641 41.32757813 -5.89113281 40.09265625 -5.93164062 38.8203125 C-6.13414401 32.90098275 -6.37998655 26.98736921 -6.78515625 21.078125 C-6.84968994 20.13227539 -6.91422363 19.18642578 -6.98071289 18.21191406 C-7.24764008 15.55672897 -7.24764008 15.55672897 -9.375 12.8125 C-12.91556848 11.71098981 -14.69331902 11.51813776 -18.125 13 C-20.60688349 14.99929503 -21.27546681 15.85612343 -22.375 18.8125 C-22.67901492 21.6632273 -22.88667477 24.43855012 -23.0078125 27.296875 C-23.04937469 28.11246887 -23.09093689 28.92806274 -23.13375854 29.76837158 C-23.2642134 32.36608153 -23.38226613 34.96418549 -23.5 37.5625 C-23.58642175 39.32686317 -23.67365198 41.09118693 -23.76171875 42.85546875 C-23.97552003 47.17407848 -24.17820267 51.49308336 -24.375 55.8125 C-28.995 55.8125 -33.615 55.8125 -38.375 55.8125 C-38.375 37.6625 -38.375 19.5125 -38.375 0.8125 C-34.085 0.8125 -29.795 0.8125 -25.375 0.8125 C-25.045 2.4625 -24.715 4.1125 -24.375 5.8125 C-23.488125 5.02875 -22.60125 4.245 -21.6875 3.4375 C-15.2158617 -1.86293694 -7.91695625 -2.78559572 0 0 Z " fill="#000000" transform="translate(179.375,190.1875)"/>
<path d="M0 0 C4.13142774 2.92222938 6.61316952 5.82697309 7.5625 10.8125 C7.64562165 12.24711576 7.68035375 13.68505505 7.67602539 15.12207031 C7.67594986 15.96263977 7.67587433 16.80320923 7.67579651 17.66925049 C7.67063522 18.56730408 7.66547394 19.46535767 7.66015625 20.390625 C7.6587413 21.3171991 7.65732635 22.24377319 7.65586853 23.19842529 C7.65027824 26.15314992 7.6377275 29.10779833 7.625 32.0625 C7.61998375 34.06770724 7.61542106 36.07291567 7.61132812 38.078125 C7.60031199 42.98961263 7.583054 47.9010434 7.5625 52.8125 C3.2725 52.8125 -1.0175 52.8125 -5.4375 52.8125 C-5.467229 51.26139526 -5.467229 51.26139526 -5.49755859 49.67895508 C-5.57382227 45.83024381 -5.66250714 41.9819004 -5.75488281 38.13354492 C-5.79308696 36.47020752 -5.82795463 34.80678992 -5.859375 33.14331055 C-5.90521234 30.7475932 -5.96317467 28.35242391 -6.0234375 25.95703125 C-6.03498871 25.2172554 -6.04653992 24.47747955 -6.05844116 23.71528625 C-6.17276045 19.68586435 -6.48158095 16.37533111 -8.4375 12.8125 C-12.02626902 10.41998732 -13.19999208 10.25282914 -17.4375 10.8125 C-20.62269747 12.43426721 -23.89332529 14.26832529 -26.4375 16.8125 C-26.59753488 19.47676685 -26.69692889 22.11810428 -26.75390625 24.78515625 C-26.77468735 25.58279892 -26.79546844 26.38044159 -26.81687927 27.20225525 C-26.88246158 29.75974611 -26.94129967 32.3173428 -27 34.875 C-27.04317699 36.60482882 -27.08679101 38.33464679 -27.13085938 40.06445312 C-27.23815172 44.3136926 -27.33939426 48.5630389 -27.4375 52.8125 C-32.0575 52.8125 -36.6775 52.8125 -41.4375 52.8125 C-41.46255615 51.58732666 -41.4876123 50.36215332 -41.51342773 49.09985352 C-41.60815126 44.52065965 -41.70820896 39.94159473 -41.80981445 35.36254883 C-41.85291923 33.38699375 -41.89460962 31.41140724 -41.93481445 29.43579102 C-41.99311465 26.58340009 -42.05663145 23.73116379 -42.12109375 20.87890625 C-42.13780624 20.00665909 -42.15451874 19.13441193 -42.17173767 18.23573303 C-42.30299985 12.70631774 -42.75645076 7.30209615 -43.4375 1.8125 C-41.8551994 1.47429834 -40.27160625 1.14214061 -38.6875 0.8125 C-37.80578125 0.626875 -36.9240625 0.44125 -36.015625 0.25 C-33.4375 -0.1875 -33.4375 -0.1875 -29.4375 -0.1875 C-28.7775 2.1225 -28.1175 4.4325 -27.4375 6.8125 C-26.75042969 6.31878906 -26.06335938 5.82507813 -25.35546875 5.31640625 C-24.00388672 4.35541016 -24.00388672 4.35541016 -22.625 3.375 C-21.73167969 2.73691406 -20.83835937 2.09882812 -19.91796875 1.44140625 C-14.03503974 -2.42187154 -6.50652144 -2.24770741 0 0 Z " fill="#FDF6F6" transform="translate(344.4375,59.1875)"/>
<path d="M0 0 C0 6.6 0 13.2 0 20 C3.3 20 6.6 20 10 20 C10 23.96 10 27.92 10 32 C6.7 32 3.4 32 0 32 C0.14207623 35.47935617 0.28855607 38.9584365 0.4375 42.4375 C0.47681641 43.41138672 0.51613281 44.38527344 0.55664062 45.38867188 C0.81368167 51.30061599 1.27719621 57.12645997 2 63 C4.64 63 7.28 63 10 63 C10.495 68.94 10.495 68.94 11 75 C4.32578999 77.669684 -1.58287481 78.03734157 -8.5 75.9375 C-12.11645956 73.13474384 -13.67319757 69.50013316 -14.25839233 65.02322388 C-14.34450023 62.89546679 -14.33815973 60.78912921 -14.29296875 58.66015625 C-14.28872391 57.89319931 -14.28447906 57.12624237 -14.28010559 56.33604431 C-14.2634507 53.91115668 -14.22582553 51.48713202 -14.1875 49.0625 C-14.17243601 47.40821522 -14.15875062 45.75391727 -14.14648438 44.09960938 C-14.11359077 40.06607897 -14.06190249 36.03318527 -14 32 C-15.98 32 -17.96 32 -20 32 C-20 28.04 -20 24.08 -20 20 C-18.02 20 -16.04 20 -14 20 C-14.15082031 19.2265625 -14.30164063 18.453125 -14.45703125 17.65625 C-14.86119358 14.0676438 -14.94026636 11.50462918 -14 8 C-10.77691545 5.09394016 -4.61101154 0 0 0 Z " fill="#000000" transform="translate(216,171)"/>
<path d="M0 0 C0.95242584 -0.01756348 1.90485168 -0.03512695 2.88613892 -0.05322266 C23.03370873 -0.25281449 38.76039586 5.42283614 56.25 15 C56.25 15.66 56.25 16.32 56.25 17 C19.29 17 -17.67 17 -55.75 17 C-55.75 16.34 -55.75 15.68 -55.75 15 C-54.38065308 14.47043701 -54.38065308 14.47043701 -52.98364258 13.93017578 C-49.58232654 12.61470899 -46.18115644 11.29886524 -42.7800293 9.98291016 C-41.31066778 9.4144486 -39.84126722 8.84608796 -38.37182617 8.27783203 C-36.25429057 7.4589273 -34.13689773 6.6396544 -32.01953125 5.8203125 C-31.36725052 5.56814972 -30.71496979 5.31598694 -30.04292297 5.05618286 C-26.15409165 3.55201981 -26.15409165 3.55201981 -22.34155273 1.86669922 C-15.36473449 -0.4665749 -7.2853636 0.12498432 0 0 Z " fill="#000000" transform="translate(749.75,247)"/>
<path d="M0 0 C1.51916321 0.24395246 1.51916321 0.24395246 3.06901658 0.49283326 C6.73833801 0.96624095 10.19996705 1.12099817 13.89573479 1.11466789 C14.88643908 1.11505047 14.88643908 1.11505047 15.89715761 1.11544079 C18.10187099 1.11508114 20.30650015 1.10755818 22.51119995 1.10006714 C24.11124924 1.09835418 25.71129906 1.09709237 27.31134903 1.09624207 C31.70198368 1.09265934 36.09258586 1.08285999 40.48320794 1.07208848 C45.22085625 1.06159478 49.95851045 1.05697201 54.69616699 1.05175781 C62.90446465 1.04205061 71.11275147 1.02901039 79.32104111 1.01403427 C92.29557518 0.9906547 105.27011003 0.97765865 118.24465942 0.96633911 C122.68463712 0.96233778 127.12461475 0.95826909 131.56459236 0.95417976 C132.67413974 0.95316054 133.78368711 0.95214131 134.92685714 0.95109119 C147.55296533 0.93935144 160.17907086 0.92547178 172.80517578 0.91064453 C173.95921501 0.9092921 175.11325424 0.90793967 176.30226435 0.90654625 C195.00987753 0.88435858 213.71747277 0.85448796 232.4250717 0.82267712 C251.63441265 0.79029258 270.84374421 0.76942124 290.05310929 0.75840485 C301.90053246 0.75118014 313.74786675 0.73447498 325.5952573 0.70560409 C333.71316234 0.68661139 341.83103191 0.67851869 349.94895898 0.67900907 C354.63259609 0.67894603 359.31609366 0.67396686 363.99969864 0.65584183 C368.28923749 0.63933902 372.5785541 0.63674208 376.86811449 0.64509059 C378.41786022 0.64566354 379.96761809 0.64117033 381.51733075 0.63102923 C398.12599754 0.52819934 398.12599754 0.52819934 404 4 C406.0625 7.1875 406.0625 7.1875 407 10 C405.515 10.495 405.515 10.495 404 11 C403.67 9.68 403.34 8.36 403 7 C402.34 7 401.68 7 401 7 C400.67 6.34 400.34 5.68 400 5 C399.17357766 4.99902319 398.34715531 4.99804638 397.49568987 4.99703997 C348.52811771 4.93878302 299.56058998 4.86499766 250.59307268 4.77101372 C244.71504346 4.75974539 238.837014 4.74860697 232.95898438 4.73754883 C231.78876187 4.73534514 230.61853936 4.73314146 229.41285557 4.730871 C210.45841144 4.69548714 191.50396735 4.67062914 172.54950243 4.64965298 C153.10418395 4.62789961 133.65890838 4.59485359 114.21362638 4.55129844 C102.21238203 4.52477377 90.21119114 4.50708439 78.20991892 4.50065396 C69.98306244 4.49540259 61.75627328 4.47919401 53.52945286 4.45433434 C48.78120416 4.44031082 44.033076 4.43115174 39.2848053 4.43499184 C34.93702306 4.43840145 30.58949828 4.42804073 26.24176878 4.40676448 C24.66964029 4.40149516 23.09748507 4.4012632 21.52535683 4.40660437 C13.8341738 4.43007106 7.03625199 4.44846042 0 1 C0 0.67 0 0.34 0 0 Z " fill="#BE0000" transform="translate(25,130)"/>
<path d="M0 0 C4.95 0 9.9 0 15 0 C15 25.08 15 50.16 15 76 C10.05 76 5.1 76 0 76 C0 50.92 0 25.84 0 0 Z " fill="#000000" transform="translate(620,170)"/>
<path d="M0 0 C4.62 0 9.24 0 14 0 C14 25.08 14 50.16 14 76 C9.38 76 4.76 76 0 76 C0 50.92 0 25.84 0 0 Z " fill="#000000" transform="translate(332,170)"/>
<path d="M0 0 C3 1 3 1 5 2 C4.00956295 6.83628305 3.04301154 11.47618873 1 16 C0.39671875 15.88140625 -0.2065625 15.7628125 -0.828125 15.640625 C-5.95208182 14.671379 -5.95208182 14.671379 -10.5 16.75 C-13.28587677 20.92881515 -13.28522496 25.09067574 -13.53515625 29.94921875 C-13.57813339 30.72183548 -13.62111053 31.49445221 -13.66539001 32.29048157 C-13.80164 34.75595972 -13.93214004 37.22170409 -14.0625 39.6875 C-14.1539181 41.36004679 -14.24571047 43.03257316 -14.33789062 44.70507812 C-14.56293579 48.80316129 -14.78282494 52.90149253 -15 57 C-19.62 57 -24.24 57 -29 57 C-29 38.85 -29 20.7 -29 2 C-24.71 2 -20.42 2 -16 2 C-15.67 3.32 -15.34 4.64 -15 6 C-14.5875 5.566875 -14.175 5.13375 -13.75 4.6875 C-9.06255265 0.16746148 -6.4848791 -0.83675859 0 0 Z " fill="#000000" transform="translate(262,189)"/>
<path d="M0 0 C5.05510556 0.44603873 7.40166738 2.64700824 11 6 C12.1968567 8.3937134 12.12321706 9.85821261 12.12025452 12.53042603 C12.12162918 13.48397476 12.12300385 14.4375235 12.12442017 15.41996765 C12.12082489 16.46941055 12.11722961 17.51885345 12.11352539 18.60009766 C12.11367142 19.70254318 12.11381744 20.80498871 12.1139679 21.94084167 C12.11326912 25.59860171 12.10547833 29.25631132 12.09765625 32.9140625 C12.09579195 35.44469169 12.0943681 37.97532125 12.09336853 40.50595093 C12.08993557 46.49473456 12.08204755 52.48349642 12.07201904 58.47227132 C12.06085033 65.2895978 12.05534554 72.10692513 12.05032361 78.92425847 C12.03986475 92.94951574 12.02227001 106.97475687 12 121 C10.10787201 120.71672726 10.10787201 120.71672726 8 120 C5.06365766 114.10055097 4.56807994 108.99030122 4.61523438 102.48217773 C4.6098616 101.56566437 4.60448883 100.649151 4.59895325 99.7048645 C4.58921936 97.72809892 4.58621773 95.75129083 4.58930969 93.77450371 C4.59380936 90.64227453 4.57972757 87.51060384 4.56091309 84.37843323 C4.51801233 76.60322828 4.50688792 68.8280369 4.49468994 61.05273438 C4.48314798 54.47167632 4.45955257 47.89087426 4.41999817 41.30992317 C4.40645648 38.23054776 4.41059292 35.15152165 4.41540527 32.0721283 C4.40606253 30.17755695 4.39589317 28.28298944 4.38476562 26.38842773 C4.39091385 25.53784286 4.39706207 24.687258 4.40339661 23.81089783 C4.34858236 18.48223981 3.53829658 14.71798497 1 10 C0.34 9.67 -0.32 9.34 -1 9 C-0.67 6.03 -0.34 3.06 0 0 Z " fill="#EA6464" transform="translate(426,13)"/>
<path d="M0 0 C129.03 0 258.06 0 391 0 C390.67 0.66 390.34 1.32 390 2 C340.89402525 2.19607147 291.78801447 2.37635864 242.68190499 2.53537826 C236.88884774 2.55415141 231.09579093 2.57305569 225.30273438 2.59204102 C224.14940631 2.59581856 222.99607825 2.59959611 221.80780086 2.60348812 C203.11573865 2.66502402 184.42373175 2.7371909 165.7317237 2.8132638 C146.56220457 2.89104429 127.39267057 2.95745323 108.22307467 3.01323253 C96.3875989 3.04803178 84.5522248 3.09177652 72.71682569 3.14684484 C64.60872364 3.18372225 56.50063384 3.20958713 48.3924661 3.22667392 C43.70948062 3.23687155 39.02664551 3.25203745 34.34373093 3.28024101 C30.0603694 3.3059314 25.77720285 3.31785957 21.4937664 3.31862888 C19.94052436 3.32137543 18.38728156 3.32926533 16.83409515 3.34269472 C14.72931269 3.36015684 12.62532475 3.3592126 10.52049637 3.35352612 C9.34943887 3.35770304 8.17838137 3.36187996 6.97183728 3.36618346 C4 3 4 3 0 0 Z " fill="#880000" transform="translate(29,137)"/>
<path d="M0 0 C4.82626694 2.36760265 7.73430831 5.12004868 10 10 C10.75728258 15.55598135 10.95625521 21.01511925 8.25 26.0625 C4.94606636 30.37596892 2.98498578 32.01309274 -2.375 32.875 C-6.75018942 33.21210476 -9.33746666 32.58042122 -13 30 C-18.13538887 24.76719183 -19.41396392 21.11650088 -19.34765625 13.8984375 C-18.67817113 8.31688739 -15.8637002 4.6566224 -11.75 1 C-7.75440275 -0.45294445 -4.19777246 -0.66007376 0 0 Z " fill="#DD0303" transform="translate(150,69)"/>
<path d="M0 0 C4.00999537 2.32506154 7.12816386 4.57608343 8.75390625 9.046875 C9.55348134 13.86249772 9.36911341 17.7506612 6.69140625 21.921875 C2.90867525 26.50152967 -1.38795234 27.81092053 -7.18359375 28.546875 C-12.05249329 28.34795109 -15.56660527 26.10042751 -19.24609375 23.046875 C-22.46994984 19.4200369 -22.7772329 15.95815701 -22.58984375 11.2578125 C-21.79755953 6.16198445 -19.04895375 3.64508441 -15.05859375 0.671875 C-10.10800598 -1.83515342 -5.1387098 -2.18060033 0 0 Z " fill="#DF1515" transform="translate(405.24609375,31.953125)"/>
<path d="M0 0 C4.95 0 9.9 0 15 0 C15.05357295 11.67890202 14.85207974 23.32702058 14.5 35 C14.45161134 36.66145218 14.40343326 38.32291052 14.35546875 39.984375 C14.23939429 43.98965799 14.12051353 47.99484822 14 52 C9.71 52 5.42 52 1 52 C-0.14984709 16.48318043 -0.14984709 16.48318043 0 0 Z " fill="#FDF8F8" transform="translate(278,60)"/>
<path d="M0 0 C4.29 0 8.58 0 13 0 C13 12.87 13 25.74 13 39 C10.49860398 40.25069801 8.72607309 40.13302467 5.9375 40.125 C4.58978516 40.12886719 4.58978516 40.12886719 3.21484375 40.1328125 C1 40 1 40 0 39 C-0.08865208 36.1156618 -0.11521296 33.25537842 -0.09765625 30.37109375 C-0.0962413 29.50686295 -0.09482635 28.64263214 -0.09336853 27.75221252 C-0.08775239 24.98060708 -0.07519719 22.2090812 -0.0625 19.4375 C-0.05748708 17.5631522 -0.05292381 15.68880315 -0.04882812 13.81445312 C-0.03777772 9.20960456 -0.0205023 4.60481579 0 0 Z " fill="#FEFEFE" transform="translate(744,174)"/>
<path d="M0 0 C3.84586906 1.68183517 3.84586906 1.68183517 5.23304749 4.5453186 C6.1893125 8.8527443 6.28438627 12.87642613 6.27124023 17.27490234 C6.27646698 18.18951736 6.28169373 19.10413239 6.28707886 20.04646301 C6.29729184 22.02544827 6.30309453 24.00446019 6.30496025 25.98347092 C6.30863357 29.11993609 6.32538698 32.25608781 6.34571838 35.39248657 C6.40103726 44.30749678 6.43179738 53.22255276 6.45629883 62.13769531 C6.47220661 67.59768406 6.50245849 73.05744964 6.54106331 78.51732254 C6.55268367 80.59283701 6.5586434 82.66839145 6.55874443 84.74393845 C6.5589373 87.65163109 6.5772632 90.55871145 6.59936523 93.46630859 C6.59478806 94.31644028 6.59021088 95.16657196 6.585495 96.04246521 C6.65303042 101.65421466 7.6391124 105.88464971 10 111 C10.66 111.33 11.32 111.66 12 112 C11.67 112.99 11.34 113.98 11 115 C8.10965834 114.67885093 6.74925918 113.8109116 4.39569092 112.03604126 C1.09578296 107.85409248 1.29645105 104.79505538 1.35644531 99.61083984 C1.3475679 98.67192902 1.33869049 97.73301819 1.32954407 96.76565552 C1.30585952 93.66372305 1.31705952 90.56292425 1.328125 87.4609375 C1.31754128 85.29723894 1.30462817 83.13355063 1.28948975 80.96987915 C1.25524679 75.26942658 1.2499076 69.56931583 1.25140381 63.86877441 C1.24863273 56.97215688 1.21575363 50.07563436 1.18333054 43.17910194 C1.15808646 37.80590237 1.13853055 32.43292562 1.13751221 27.05966187 C1.13368668 25.09495032 1.12984242 23.13023881 1.12597656 21.16552734 C1.12807632 20.29655823 1.13017609 19.42758911 1.13233948 18.5322876 C1.11318628 12.31122258 0.64709428 6.18609485 0 0 Z " fill="#E12323" transform="translate(425,22)"/>
<path d="M0 0 C2.53301144 7.09843712 3.42538231 13.3550342 3.34057617 20.86572266 C3.34101425 21.9010614 3.34145233 22.93640015 3.34190369 24.00311279 C3.33983081 27.3902948 3.3165707 30.77696806 3.29296875 34.1640625 C3.28736746 36.52631358 3.28309988 38.88856816 3.28010559 41.25082397 C3.26869883 47.44205493 3.23926757 53.63307185 3.20599365 59.82421875 C3.17520272 66.15231431 3.16158101 72.48044474 3.14648438 78.80859375 C3.11439384 91.20582276 3.0632481 103.60289352 3 116 C0.59783721 114.31641398 -0.82685508 112.92751237 -1.3763752 109.98381233 C-1.51229768 107.34192943 -1.5254156 104.72371029 -1.49829102 102.07836914 C-1.50380981 101.07144516 -1.50932861 100.06452118 -1.51501465 99.02708435 C-1.52433928 96.84125277 -1.52443603 94.65536687 -1.51642036 92.46953011 C-1.50381623 89.01045142 -1.5150569 85.5521737 -1.53245544 82.09312439 C-1.55919126 75.99748034 -1.56474982 69.90203179 -1.56335449 63.80633545 C-1.56112831 54.05263159 -1.57519552 44.29916979 -1.61894035 34.54556084 C-1.62879247 31.13702105 -1.62005365 27.72885986 -1.61024475 24.32032776 C-1.61638856 22.23055777 -1.62330016 20.14078984 -1.63110352 18.05102539 C-1.62338425 17.10280914 -1.61566498 16.1545929 -1.60771179 15.17764282 C-1.64607227 10.20390157 -1.94392167 7.13178204 -5 3 C-5 2.34 -5 1.68 -5 1 C-3 0 -3 0 0 0 Z " fill="#B40000" transform="translate(22,14)"/>
<path d="M0 0 C1.6364653 2.45469795 2.62268937 4.35053275 3.65625 7.0546875 C3.95660156 7.83457031 4.25695312 8.61445312 4.56640625 9.41796875 C5.02853516 10.63419922 5.02853516 10.63419922 5.5 11.875 C6.11442665 13.47662262 6.72900588 15.07818671 7.34375 16.6796875 C7.62863281 17.43475586 7.91351563 18.18982422 8.20703125 18.96777344 C8.83951132 20.58869835 9.54814308 22.17984455 10.28125 23.7578125 C11 26 11 26 10 31 C3.4 31 -3.2 31 -10 31 C-11.29013967 27.12958099 -10.42450993 25.84545358 -8.9453125 22.08984375 C-8.49542969 20.93548828 -8.04554687 19.78113281 -7.58203125 18.59179688 C-7.10121094 17.38587891 -6.62039062 16.17996094 -6.125 14.9375 C-5.65191406 13.72771484 -5.17882812 12.51792969 -4.69140625 11.27148438 C-1.2476461 2.49529221 -1.2476461 2.49529221 0 0 Z " fill="#DD0505" transform="translate(78,52)"/>
<path d="M0 0 C3.39450375 1.40462224 5.05067019 2.89057945 7 6 C7.36914349 8.19448471 7.36914349 8.19448471 7.36076355 10.61907959 C7.36488754 11.54172104 7.36901154 12.46436249 7.3732605 13.41496277 C7.36247467 14.41981216 7.35168884 15.42466156 7.34057617 16.45996094 C7.34101425 17.52368423 7.34145233 18.58740753 7.34190369 19.68336487 C7.33981309 23.20055473 7.31646861 26.71726837 7.29296875 30.234375 C7.28737378 32.67246236 7.28310321 35.11055309 7.28010559 37.54864502 C7.26864913 43.9668305 7.23917477 50.38481244 7.20599365 56.80291748 C7.1753102 63.35165656 7.16160393 69.90042851 7.14648438 76.44921875 C7.11430608 89.29956603 7.06367619 102.14977219 7 115 C6.01 114.34 5.02 113.68 4 113 C3.69996416 109.89781956 3.59398018 106.99293262 3.61523438 103.88793945 C3.60717522 102.47059258 3.60717522 102.47059258 3.59895325 101.02461243 C3.58915116 98.96752789 3.5862384 96.91040188 3.58930969 94.85329628 C3.59377432 91.59553341 3.57982385 88.33831771 3.56091309 85.08061218 C3.52404767 78.15791724 3.51041631 71.23527865 3.5 64.3125 C3.48792302 56.30823905 3.46632812 48.30424262 3.41999817 40.30010033 C3.40643471 37.0944364 3.41059896 33.88910725 3.41540527 30.6834259 C3.40606104 28.70862403 3.39589131 26.73382584 3.38476562 24.7590332 C3.39091385 23.87096985 3.39706207 22.98290649 3.40339661 22.06793213 C3.34937825 16.59330949 2.41287599 12.91235907 0 8 C-0.33349135 5.2297985 -0.14771967 2.80667378 0 0 Z " fill="#EC7575" transform="translate(431,15)"/>
<path d="M0 0 C4.00999537 2.32506154 7.12816386 4.57608343 8.75390625 9.046875 C9.55348134 13.86249772 9.36911341 17.7506612 6.69140625 21.921875 C2.90867525 26.50152967 -1.38795234 27.81092053 -7.18359375 28.546875 C-12.05249329 28.34795109 -15.56660527 26.10042751 -19.24609375 23.046875 C-22.46994984 19.4200369 -22.7772329 15.95815701 -22.58984375 11.2578125 C-21.79755953 6.16198445 -19.04895375 3.64508441 -15.05859375 0.671875 C-10.10800598 -1.83515342 -5.1387098 -2.18060033 0 0 Z M-17.24609375 7.046875 C-18.97734496 10.50937743 -18.72424599 14.26095729 -18.24609375 18.046875 C-16.17964154 21.51556263 -14.14417466 23.85579472 -10.24609375 25.046875 C-5.1264995 25.68941622 -5.1264995 25.68941622 -0.4296875 24.03125 C2.25667142 21.88216286 3.65859355 20.3328131 4.75390625 17.046875 C5.27320807 11.29013688 5.27320807 11.29013688 3.00390625 6.171875 C-0.89455571 2.48999426 -3.70632608 1.53916482 -9.2109375 1.65234375 C-12.86336972 2.36039683 -14.68393183 4.42222132 -17.24609375 7.046875 Z " fill="#FCECEC" transform="translate(405.24609375,31.953125)"/>
<path d="M0 0 C3.84345809 1.45786341 5.15079935 3.38965588 7 7 C7.89952676 9.69858028 8.12637425 11.24239232 8.13130188 14.00961304 C8.13531006 14.82268417 8.13931824 15.63575531 8.14344788 16.47346497 C8.1426548 17.80603584 8.1426548 17.80603584 8.1418457 19.16552734 C8.14532013 20.1040303 8.14879456 21.04253326 8.15237427 22.00947571 C8.15972995 24.04910056 8.16507633 26.08873342 8.16866493 28.12836838 C8.17582603 31.35612244 8.19148949 34.5837241 8.21000671 37.81143188 C8.26249695 46.98917569 8.31046888 56.16683582 8.32592773 65.34472656 C8.33600114 70.95692093 8.36530847 76.56873175 8.40724754 82.18077469 C8.41957042 84.3201673 8.42467646 86.45961404 8.42244911 88.59904099 C8.42009991 91.59167261 8.44223365 94.58320092 8.4699707 97.57568359 C8.46336929 98.46001572 8.45676788 99.34434784 8.44996643 100.25547791 C8.5302141 105.52508585 9.19721606 108.06360338 13 112 C13 112.66 13 113.32 13 114 C11.10787201 113.71672726 11.10787201 113.71672726 9 113 C6.06365766 107.10055097 5.56807994 101.99030122 5.61523438 95.48217773 C5.6098616 94.56566437 5.60448883 93.649151 5.59895325 92.7048645 C5.58921936 90.72809892 5.58621773 88.75129083 5.58930969 86.77450371 C5.59380936 83.64227453 5.57972757 80.51060384 5.56091309 77.37843323 C5.51801233 69.60322828 5.50688792 61.8280369 5.49468994 54.05273438 C5.48314798 47.47167632 5.45955257 40.89087426 5.41999817 34.30992317 C5.40645648 31.23054776 5.41059292 28.15152165 5.41540527 25.0721283 C5.40606253 23.17755695 5.39589317 21.28298944 5.38476562 19.38842773 C5.39091385 18.53784286 5.39706207 17.687258 5.40339661 16.81089783 C5.34858236 11.48223981 4.53829658 7.71798497 2 3 C1.34 2.67 0.68 2.34 0 2 C0 1.34 0 0.68 0 0 Z " fill="#E74F4F" transform="translate(425,20)"/>
<path d="M0 0 C1.875 0.625 1.875 0.625 4 2 C6.26579591 7.0940756 6.29922347 11.84227402 6.30297852 17.30664062 C6.31141785 18.22446823 6.31985718 19.14229584 6.32855225 20.0879364 C6.35426437 23.11071311 6.36645646 26.13339218 6.37890625 29.15625 C6.39508926 31.26323206 6.4122701 33.37020668 6.43040466 35.47717285 C6.47604298 41.01829579 6.51086944 46.55942885 6.54260254 52.10064697 C6.5945149 60.96953867 6.65976528 69.83832026 6.73081779 78.70707703 C6.75359401 81.80133092 6.76990224 84.89557101 6.78553772 87.98986816 C6.79894949 89.89103343 6.81256473 91.79219727 6.82641602 93.69335938 C6.82902939 94.55068161 6.83164276 95.40800385 6.83433533 96.29130554 C6.87185444 100.63642909 7.13454186 104.72122376 8 109 C6.68 108.67 5.36 108.34 4 108 C3.98969254 106.72879807 3.97938507 105.45759613 3.96876526 104.14787292 C3.87112895 92.1845323 3.76840417 80.22124483 3.66066074 68.25799084 C3.60542962 62.10715226 3.55200924 55.95630893 3.50268555 49.80541992 C3.45504489 43.87263593 3.40270208 37.93991057 3.34705925 32.00719643 C3.32663436 29.74053718 3.30792151 27.47386186 3.29092598 25.2071743 C3.26688505 22.03934272 3.23682988 18.87162228 3.20532227 15.70385742 C3.1995668 14.76086792 3.19381134 13.81787842 3.18788147 12.84631348 C3.17809265 11.98394577 3.16830383 11.12157806 3.15821838 10.233078 C3.15176583 9.48366031 3.14531328 8.73424261 3.1386652 7.96211529 C3.06651611 5.78527639 3.06651611 5.78527639 2 3 C1.34 2.67 0.68 2.34 0 2 C0 1.34 0 0.68 0 0 Z " fill="#E43939" transform="translate(425,22)"/>
<path d="M0 0 C0.99 0 1.98 0 3 0 C5.47236156 6.97801072 6.4273076 13.11810341 6.34057617 20.49853516 C6.34101425 21.49485962 6.34145233 22.49118408 6.34190369 23.5177002 C6.33983193 26.775028 6.31657741 30.03182583 6.29296875 33.2890625 C6.28736706 35.56163248 6.28309967 37.8342061 6.28010559 40.10678101 C6.26870202 46.06128097 6.2392736 52.01555818 6.20599365 57.9699707 C6.17519576 64.05677274 6.16157954 70.1436111 6.14648438 76.23046875 C6.11439949 88.1537432 6.06325772 100.07685301 6 112 C3.62313103 109.62313103 3.7499043 109.16167623 3.7484436 105.9342804 C3.74306076 105.08340347 3.73767792 104.23252655 3.73213196 103.35586548 C3.73625595 102.42027802 3.74037994 101.48469055 3.74462891 100.52075195 C3.74100845 99.53683975 3.737388 98.55292755 3.73365784 97.53919983 C3.72675101 95.3969802 3.7242608 93.25474293 3.72560501 91.11251259 C3.72656757 87.72040985 3.71365879 84.32862637 3.69662476 80.93656921 C3.65027798 71.29017648 3.62575411 61.6438146 3.61914062 51.99731445 C3.61412273 46.10100487 3.5898535 40.20502593 3.55381393 34.30882835 C3.54401786 32.06222711 3.54168292 29.81558035 3.54698563 27.568964 C3.55406456 24.4210246 3.53675438 21.27406737 3.51416016 18.1262207 C3.52233261 17.20075439 3.53050507 16.27528809 3.53892517 15.32177734 C3.46322232 9.38109175 2.37267766 5.91387466 -1 1 C-0.67 0.67 -0.34 0.34 0 0 Z " fill="#C70000" transform="translate(19,14)"/>
<path d="M0 0 C3.3714743 2.93644535 4.44029101 4.59538271 5 9 C5.13389645 12.31099514 5.12625485 15.61761213 5.11352539 18.9309082 C5.11367142 19.92650253 5.11381744 20.92209686 5.1139679 21.94786072 C5.11327232 25.23218988 5.10549652 28.51646202 5.09765625 31.80078125 C5.09579081 34.08049997 5.0943675 36.36021909 5.09336853 38.63993835 C5.08955329 44.63551951 5.07973146 50.63107638 5.06866455 56.62664795 C5.0584291 62.746538 5.05386633 68.86643198 5.04882812 74.98632812 C5.03810832 86.99089608 5.02104379 98.99544602 5 111 C2.93094118 107.89641177 2.7470002 107.21052791 2.7215271 103.69099426 C2.70478188 102.37220024 2.70478188 102.37220024 2.68769836 101.02676392 C2.68553818 100.06507294 2.68337799 99.10338196 2.68115234 98.11254883 C2.67110672 97.09773941 2.6610611 96.08292999 2.65071106 95.03736877 C2.61977748 91.67726212 2.60281556 88.31723551 2.5859375 84.95703125 C2.56723405 82.62960618 2.54766127 80.30218796 2.5272522 77.97477722 C2.47583812 71.84441146 2.43626202 65.7140237 2.39910889 59.58355713 C2.35912736 53.3297375 2.30800836 47.07601014 2.2578125 40.82226562 C2.16094338 28.54824182 2.07657378 16.27416602 2 4 C0.68 3.34 -0.64 2.68 -2 2 C-1.34 1.34 -0.68 0.68 0 0 Z " fill="#8C0000" transform="translate(15,17)"/>
<path d="M0 0 C1.9375 1.125 1.9375 1.125 3 3 C3.65432099 9.10699588 3.65432099 9.10699588 1.7578125 11.6953125 C-0.46294835 13.34361055 -1.75582912 13.40244171 -4.5 13.375 C-5.2734375 13.38273437 -6.046875 13.39046875 -6.84375 13.3984375 C-9.51790141 12.90430083 -10.39583815 12.1706315 -12 10 C-12.5 6.5625 -12.5 6.5625 -12 3 C-8.31376997 -1.46815761 -5.41712863 -1.50475795 0 0 Z " fill="#FDF8F8" transform="translate(290,40)"/>
<path d="M0 0 C0 4.95 0 9.9 0 15 C1.32 15 2.64 15 4 15 C4 13.02 4 11.04 4 9 C5.65 9.33 7.3 9.66 9 10 C9.33 11.65 9.66 13.3 10 15 C11.32 15 12.64 15 14 15 C14 15.66 14 16.32 14 17 C10.29519659 19.46986894 7.29780299 19.67432448 3 19 C-0.75212276 16.98497111 -2.63644095 15.54533858 -5 12 C-5.47403231 8.95737402 -5.48160774 6.04262773 -5 3 C-2.18181818 0 -2.18181818 0 0 0 Z " fill="#DE0E0E" transform="translate(392,38)"/>
<path d="M0 0 C8.625 -0.25 8.625 -0.25 12 2 C11.79375 3.03125 11.5875 4.0625 11.375 5.125 C10.98805597 9.1234216 11.48116924 11.33693757 13 15 C11.68 15 10.36 15 9 15 C8.7525 14.195625 8.505 13.39125 8.25 12.5625 C7.27761141 9.828919 7.27761141 9.828919 4.875 9.1875 C4.25625 9.125625 3.6375 9.06375 3 9 C3 10.98 3 12.96 3 15 C2.01 15 1.02 15 0 15 C0 10.05 0 5.1 0 0 Z " fill="#FCEFEF" transform="translate(393,38)"/>
<path d="M0 0 C0.99 0.66 1.98 1.32 3 2 C2.51171875 8.0546875 2.51171875 8.0546875 2 10 C-1 12 -1 12 -4.5625 11.75 C-8 11 -8 11 -10 9 C-10.3267107 5.92891945 -10.48138276 3.84949899 -8.9375 1.125 C-5.92517484 -0.62409203 -3.40497373 -0.30401551 0 0 Z " fill="#FCFDFD" transform="translate(754,158)"/>
<path d="M0 0 C0.99 0 1.98 0 3 0 C3 2.97 3 5.94 3 9 C2.01 8.34 1.02 7.68 0 7 C-0.1875 3.375 -0.1875 3.375 0 0 Z " fill="#E95A5A" transform="translate(426,13)"/>
<path d="M0 0 C1.65 0 3.3 0 5 0 C4.67 1.32 4.34 2.64 4 4 C2.68 4 1.36 4 0 4 C0 2.68 0 1.36 0 0 Z " fill="#E01919" transform="translate(396,41)"/>
</svg>
